<mxfile host="65bd71144e">
    <diagram id="YGszSeiqtWaF0cHUlHHl" name="Page-1">
        <mxGraphModel dx="650" dy="563" grid="1" gridSize="10" guides="1" tooltips="1" connect="1" arrows="1" fold="1" page="1" pageScale="1" pageWidth="850" pageHeight="1100" math="0" shadow="0">
            <root>
                <mxCell id="0"/>
                <mxCell id="1" parent="0"/>
                <mxCell id="6" value="" style="rounded=1;whiteSpace=wrap;html=1;shadow=0;strokeWidth=1;verticalAlign=middle;labelBackgroundColor=none;glass=0;labelBorderColor=none;fillColor=none;fontColor=#ffffff;strokeColor=#001DBC;" vertex="1" parent="1">
                    <mxGeometry x="30" width="380" height="120" as="geometry"/>
                </mxCell>
                <mxCell id="2" value="&lt;font style=&quot;font-size: 13px; color: rgb(255, 255, 255);&quot;&gt;&lt;b style=&quot;&quot;&gt;Original repo&lt;/b&gt;&lt;/font&gt;&lt;div&gt;&lt;font style=&quot;font-size: 13px; color: rgb(255, 255, 255);&quot;&gt;&lt;b&gt;on GitHub&lt;/b&gt;&lt;/font&gt;&lt;/div&gt;&lt;div&gt;&lt;font style=&quot;font-size: 13px; color: rgb(255, 255, 255);&quot;&gt;&lt;b style=&quot;&quot;&gt;(upstream)&lt;/b&gt;&lt;/font&gt;&lt;/div&gt;" style="rounded=1;whiteSpace=wrap;html=1;fillColor=#e51400;fontColor=#ffffff;strokeColor=#B20000;" vertex="1" parent="1">
                    <mxGeometry x="50" y="30" width="110" height="70" as="geometry"/>
                </mxCell>
                <mxCell id="3" value="&lt;span style=&quot;font-size: 13px;&quot;&gt;&lt;b&gt;Contributor&lt;/b&gt;&lt;/span&gt;&lt;div&gt;&lt;span style=&quot;font-size: 13px;&quot;&gt;&lt;b&gt;on local&lt;/b&gt;&lt;/span&gt;&lt;/div&gt;" style="rounded=1;whiteSpace=wrap;html=1;fillColor=#e3c800;fontColor=#000000;strokeColor=#B09500;" vertex="1" parent="1">
                    <mxGeometry x="270" y="160" width="110" height="70" as="geometry"/>
                </mxCell>
                <mxCell id="4" value="&lt;span style=&quot;font-size: 13px;&quot;&gt;&lt;b&gt;Mainteiner&lt;/b&gt;&lt;/span&gt;&lt;div&gt;&lt;span style=&quot;font-size: 13px;&quot;&gt;&lt;b&gt;on local&lt;/b&gt;&lt;/span&gt;&lt;/div&gt;" style="rounded=1;whiteSpace=wrap;html=1;fillColor=#d80073;fontColor=#ffffff;strokeColor=#A50040;" vertex="1" parent="1">
                    <mxGeometry x="50" y="160" width="110" height="70" as="geometry"/>
                </mxCell>
                <mxCell id="5" value="&lt;span style=&quot;font-size: 13px;&quot;&gt;&lt;b&gt;Forked repo&lt;/b&gt;&lt;/span&gt;&lt;div&gt;&lt;span style=&quot;font-size: 13px;&quot;&gt;&lt;b&gt;on GitHub&lt;/b&gt;&lt;/span&gt;&lt;/div&gt;&lt;div&gt;&lt;span style=&quot;font-size: 13px;&quot;&gt;&lt;b&gt;(origin)&lt;/b&gt;&lt;/span&gt;&lt;/div&gt;" style="rounded=1;whiteSpace=wrap;html=1;fillColor=#f0a30a;fontColor=#000000;strokeColor=#BD7000;" vertex="1" parent="1">
                    <mxGeometry x="270" y="30" width="110" height="70" as="geometry"/>
                </mxCell>
                <mxCell id="7" value="&lt;font style=&quot;font-size: 25px; color: rgb(0, 0, 255);&quot;&gt;&lt;b&gt;GitHub&lt;/b&gt;&lt;/font&gt;" style="text;html=1;align=center;verticalAlign=middle;whiteSpace=wrap;rounded=0;" vertex="1" parent="1">
                    <mxGeometry x="180" width="60" height="30" as="geometry"/>
                </mxCell>
                <mxCell id="10" value="" style="shape=singleArrow;direction=west;whiteSpace=wrap;html=1;rounded=1;shadow=0;glass=0;strokeColor=#001DBC;strokeWidth=2;align=center;verticalAlign=middle;fontFamily=Helvetica;fontSize=12;fontColor=#ffffff;labelBorderColor=none;labelBackgroundColor=none;fillColor=#0050ef;" vertex="1" parent="1">
                    <mxGeometry x="170" y="70" width="100" height="35" as="geometry"/>
                </mxCell>
                <mxCell id="11" value="" style="shape=singleArrow;direction=west;whiteSpace=wrap;html=1;rounded=1;shadow=0;glass=0;strokeColor=#001DBC;strokeWidth=2;align=center;verticalAlign=middle;fontFamily=Helvetica;fontSize=12;fontColor=#ffffff;labelBorderColor=none;labelBackgroundColor=none;fillColor=#0050ef;flipV=0;flipH=1;" vertex="1" parent="1">
                    <mxGeometry x="170" y="30" width="100" height="40" as="geometry"/>
                </mxCell>
                <mxCell id="12" value="&lt;h4&gt;&lt;b&gt;&lt;font style=&quot;color: rgb(255, 255, 255);&quot; face=&quot;Verdana&quot;&gt;Fork&lt;/font&gt;&lt;/b&gt;&lt;/h4&gt;" style="text;html=1;align=center;verticalAlign=middle;whiteSpace=wrap;rounded=0;fontFamily=Helvetica;fontSize=12;fontColor=#ffffff;labelBorderColor=none;labelBackgroundColor=none;" vertex="1" parent="1">
                    <mxGeometry x="190" y="30" width="60" height="40" as="geometry"/>
                </mxCell>
                <mxCell id="13" value="&lt;h4&gt;&lt;b&gt;&lt;font style=&quot;color: rgb(255, 255, 255);&quot; face=&quot;Verdana&quot;&gt;Pull request&lt;/font&gt;&lt;/b&gt;&lt;/h4&gt;" style="text;html=1;align=center;verticalAlign=middle;whiteSpace=wrap;rounded=0;fontFamily=Helvetica;fontSize=12;fontColor=#ffffff;labelBorderColor=none;labelBackgroundColor=none;" vertex="1" parent="1">
                    <mxGeometry x="160" y="70" width="120" height="30" as="geometry"/>
                </mxCell>
                <mxCell id="14" style="edgeStyle=none;html=1;exitX=1;exitY=1;exitDx=0;exitDy=0;entryX=1;entryY=0.75;entryDx=0;entryDy=0;fontFamily=Helvetica;fontSize=12;fontColor=#ffffff;labelBorderColor=none;labelBackgroundColor=none;" edge="1" parent="1" source="12" target="12">
                    <mxGeometry relative="1" as="geometry"/>
                </mxCell>
                <mxCell id="15" value="" style="endArrow=classic;html=1;fontFamily=Helvetica;fontSize=12;fontColor=#ffffff;labelBorderColor=none;labelBackgroundColor=none;" edge="1" parent="1">
                    <mxGeometry width="50" height="50" relative="1" as="geometry">
                        <mxPoint x="510" y="59.5" as="sourcePoint"/>
                        <mxPoint x="380" y="59.5" as="targetPoint"/>
                    </mxGeometry>
                </mxCell>
                <mxCell id="16" value="&lt;font style=&quot;color: rgb(0, 0, 0);&quot;&gt;&lt;b&gt;un clone della ripo&lt;/b&gt;&lt;/font&gt;&lt;div&gt;&lt;font style=&quot;color: rgb(0, 0, 0);&quot;&gt;&lt;b&gt;sul nostro account di Github&lt;/b&gt;&lt;/font&gt;&lt;/div&gt;" style="text;html=1;align=center;verticalAlign=middle;whiteSpace=wrap;rounded=0;fontFamily=Helvetica;fontSize=12;fontColor=#ffffff;labelBorderColor=none;labelBackgroundColor=none;" vertex="1" parent="1">
                    <mxGeometry x="410" y="10" width="190" height="60" as="geometry"/>
                </mxCell>
                <mxCell id="17" value="" style="shape=singleArrow;direction=south;whiteSpace=wrap;html=1;rounded=1;shadow=0;glass=0;strokeColor=#001DBC;strokeWidth=2;align=center;verticalAlign=middle;fontFamily=Helvetica;fontSize=12;fontColor=#ffffff;labelBorderColor=none;labelBackgroundColor=none;fillColor=none;" vertex="1" parent="1">
                    <mxGeometry x="330" y="105" width="25" height="55" as="geometry"/>
                </mxCell>
                <mxCell id="18" value="" style="shape=singleArrow;direction=north;whiteSpace=wrap;html=1;rounded=1;shadow=0;glass=0;strokeColor=#001DBC;strokeWidth=2;align=center;verticalAlign=middle;fontFamily=Helvetica;fontSize=12;fontColor=#ffffff;labelBorderColor=none;labelBackgroundColor=none;fillColor=none;" vertex="1" parent="1">
                    <mxGeometry x="300" y="100" width="20" height="60" as="geometry"/>
                </mxCell>
                <mxCell id="20" value="&lt;b&gt;Pusch&lt;/b&gt;" style="text;html=1;align=center;verticalAlign=middle;resizable=0;points=[];autosize=1;strokeColor=none;fillColor=none;fontFamily=Helvetica;fontSize=12;fontColor=#ffffff;labelBorderColor=none;labelBackgroundColor=none;" vertex="1" parent="1">
                    <mxGeometry x="340" y="117.5" width="60" height="30" as="geometry"/>
                </mxCell>
                <mxCell id="21" value="&lt;b&gt;Pull&lt;/b&gt;" style="text;html=1;align=center;verticalAlign=middle;resizable=0;points=[];autosize=1;strokeColor=none;fillColor=none;fontFamily=Helvetica;fontSize=12;fontColor=#ffffff;labelBorderColor=none;labelBackgroundColor=none;" vertex="1" parent="1">
                    <mxGeometry x="260" y="115" width="50" height="30" as="geometry"/>
                </mxCell>
            </root>
        </mxGraphModel>
    </diagram>
</mxfile>